<mxfile host="65bd71144e">
    <diagram id="7cOzooCGkPrGgEGhajy_" name="Page-1">
        <mxGraphModel dx="594" dy="3744" grid="1" gridSize="10" guides="1" tooltips="1" connect="1" arrows="1" fold="1" page="1" pageScale="1" pageWidth="1700" pageHeight="1100" background="#CCCCFF" math="0" shadow="0">
            <root>
                <mxCell id="0"/>
                <mxCell id="1" parent="0"/>
                <mxCell id="2" value="&lt;h1 style=&quot;font-size: 36px;&quot;&gt;How To Order Food With Online Apps&lt;br style=&quot;font-size: 36px;&quot;&gt;&lt;/h1&gt;" style="text;html=1;strokeColor=#6c8ebf;fillColor=#dae8fc;spacing=5;spacingTop=-20;whiteSpace=wrap;overflow=hidden;rounded=0;sketch=1;align=center;fontSize=36;" vertex="1" parent="1">
                    <mxGeometry x="940" y="-3240" width="750" height="90" as="geometry"/>
                </mxCell>
                <mxCell id="3" style="edgeStyle=none;sketch=1;html=1;exitX=0.75;exitY=0;exitDx=0;exitDy=0;entryX=0.783;entryY=-0.017;entryDx=0;entryDy=0;entryPerimeter=0;fontFamily=Georgia;" edge="1" parent="1" source="2" target="2">
                    <mxGeometry relative="1" as="geometry"/>
                </mxCell>
                <mxCell id="4" value="&lt;pre class=&quot;tw-data-text tw-text-large tw-ta&quot; id=&quot;tw-target-text&quot; dir=&quot;ltr&quot; style=&quot;line-height: 36px ; border: none ; padding: 2px 0.14em 2px 0px ; position: relative ; margin-top: -2px ; margin-bottom: -2px ; resize: none ; font-family: inherit ; overflow: hidden ; width: 270.019px ; overflow-wrap: break-word ; color: rgb(32 , 33 , 36) ; font-size: 24px&quot;&gt;&lt;span class=&quot;Y2IQFc&quot; lang=&quot;en&quot;&gt;&lt;span&gt;  Open&lt;/span&gt;&lt;font style=&quot;font-size: 24px&quot;&gt; the online &lt;/font&gt;&lt;/span&gt;&lt;/pre&gt;&lt;pre class=&quot;tw-data-text tw-text-large tw-ta&quot; id=&quot;tw-target-text&quot; dir=&quot;ltr&quot; style=&quot;line-height: 36px ; border: none ; padding: 2px 0.14em 2px 0px ; position: relative ; margin-top: -2px ; margin-bottom: -2px ; resize: none ; font-family: inherit ; overflow: hidden ; width: 270.019px ; overflow-wrap: break-word ; color: rgb(32 , 33 , 36) ; font-size: 24px&quot;&gt;&lt;span class=&quot;Y2IQFc&quot; lang=&quot;en&quot;&gt;&lt;font style=&quot;font-size: 24px&quot;&gt;   application&lt;/font&gt;&lt;/span&gt;&lt;/pre&gt;" style="ellipse;whiteSpace=wrap;html=1;sketch=1;fontFamily=Georgia;align=center;" vertex="1" parent="1">
                    <mxGeometry x="80" y="-3090" width="380" height="160" as="geometry"/>
                </mxCell>
                <mxCell id="6" value="" style="endArrow=classic;html=1;sketch=1;fontFamily=Georgia;fontSize=29;entryX=0;entryY=0.5;entryDx=0;entryDy=0;" edge="1" parent="1" source="4" target="12">
                    <mxGeometry width="50" height="50" relative="1" as="geometry">
                        <mxPoint x="810" y="-2870" as="sourcePoint"/>
                        <mxPoint x="830" y="-2850" as="targetPoint"/>
                        <Array as="points"/>
                    </mxGeometry>
                </mxCell>
                <mxCell id="12" value="&lt;pre class=&quot;tw-data-text tw-text-large tw-ta&quot; id=&quot;tw-target-text&quot; dir=&quot;ltr&quot; style=&quot;line-height: 36px ; border: none ; padding: 2px 0.14em 2px 0px ; position: relative ; margin-top: -2px ; margin-bottom: -2px ; resize: none ; font-family: inherit ; overflow: hidden ; width: 270.019px ; overflow-wrap: break-word ; color: rgb(32 , 33 , 36) ; font-size: 15px&quot;&gt;&lt;b style=&quot;font-family: inherit ; white-space: normal&quot;&gt;&lt;span class=&quot;Y2IQFc&quot; lang=&quot;en&quot;&gt;Choose the type &lt;/span&gt;of &lt;span style=&quot;font-family: inherit&quot;&gt;food you want&lt;/span&gt;&lt;/b&gt;&lt;br&gt;&lt;/pre&gt;&lt;div style=&quot;font-size: 15px&quot;&gt;&lt;span class=&quot;Y2IQFc&quot; lang=&quot;en&quot; style=&quot;font-size: 15px&quot;&gt;&lt;br style=&quot;font-size: 15px&quot;&gt;&lt;/span&gt;&lt;/div&gt;" style="shape=parallelogram;perimeter=parallelogramPerimeter;whiteSpace=wrap;html=1;fixedSize=1;sketch=1;fontFamily=Georgia;fontSize=15;" vertex="1" parent="1">
                    <mxGeometry x="520" y="-3050" width="420" height="90" as="geometry"/>
                </mxCell>
                <mxCell id="13" value="&lt;pre class=&quot;tw-data-text tw-text-large tw-ta&quot; id=&quot;tw-target-text&quot; dir=&quot;ltr&quot; style=&quot;line-height: 36px; border: none; padding: 2px 0.14em 2px 0px; position: relative; margin-top: -2px; margin-bottom: -2px; resize: none; font-family: inherit; overflow: hidden; width: 270.019px; overflow-wrap: break-word; color: rgb(32, 33, 36); font-size: 15px;&quot;&gt;&lt;span class=&quot;Y2IQFc&quot; lang=&quot;en&quot; style=&quot;font-size: 15px;&quot;&gt;&lt;font style=&quot;font-size: 15px;&quot;&gt;Then choose a restaurant &lt;/font&gt;&lt;/span&gt;&lt;/pre&gt;&lt;pre class=&quot;tw-data-text tw-text-large tw-ta&quot; id=&quot;tw-target-text&quot; dir=&quot;ltr&quot; style=&quot;line-height: 36px; border: none; padding: 2px 0.14em 2px 0px; position: relative; margin-top: -2px; margin-bottom: -2px; resize: none; font-family: inherit; overflow: hidden; width: 270.019px; overflow-wrap: break-word; color: rgb(32, 33, 36); font-size: 15px;&quot;&gt;&lt;span class=&quot;Y2IQFc&quot; lang=&quot;en&quot; style=&quot;font-size: 15px;&quot;&gt;&lt;font style=&quot;font-size: 15px;&quot;&gt;to buy a food&lt;/font&gt;&lt;/span&gt;&lt;/pre&gt;" style="shape=parallelogram;perimeter=parallelogramPerimeter;whiteSpace=wrap;html=1;fixedSize=1;sketch=1;fontFamily=Georgia;fontSize=15;fontStyle=1" vertex="1" parent="1">
                    <mxGeometry x="980" y="-3050" width="410" height="90" as="geometry"/>
                </mxCell>
                <mxCell id="16" value="&lt;pre class=&quot;tw-data-text tw-text-large tw-ta&quot; id=&quot;tw-target-text&quot; dir=&quot;ltr&quot; style=&quot;line-height: 36px; border: none; padding: 2px 0.14em 2px 0px; position: relative; margin-top: -2px; margin-bottom: -2px; resize: none; font-family: inherit; overflow: hidden; width: 270.019px; overflow-wrap: break-word; color: rgb(32, 33, 36); font-size: 15px;&quot;&gt;&lt;span class=&quot;Y2IQFc&quot; lang=&quot;en&quot; style=&quot;font-size: 15px;&quot;&gt;&lt;font style=&quot;font-size: 15px;&quot;&gt;Scroll the menu of&lt;/font&gt;&lt;/span&gt;&lt;/pre&gt;&lt;pre class=&quot;tw-data-text tw-text-large tw-ta&quot; id=&quot;tw-target-text&quot; dir=&quot;ltr&quot; style=&quot;line-height: 36px; border: none; padding: 2px 0.14em 2px 0px; position: relative; margin-top: -2px; margin-bottom: -2px; resize: none; font-family: inherit; overflow: hidden; width: 270.019px; overflow-wrap: break-word; color: rgb(32, 33, 36); font-size: 15px;&quot;&gt;&lt;span class=&quot;Y2IQFc&quot; lang=&quot;en&quot; style=&quot;font-size: 15px;&quot;&gt;&lt;font style=&quot;font-size: 15px;&quot;&gt; the restaurant&lt;/font&gt;&lt;/span&gt;&lt;/pre&gt;" style="rounded=0;whiteSpace=wrap;html=1;sketch=1;fontFamily=Georgia;fontSize=15;align=center;fontStyle=1" vertex="1" parent="1">
                    <mxGeometry x="1460" y="-3055" width="380" height="110" as="geometry"/>
                </mxCell>
                <mxCell id="17" value="" style="endArrow=classic;html=1;sketch=1;fontFamily=Georgia;fontSize=20;" edge="1" parent="1" source="12">
                    <mxGeometry width="50" height="50" relative="1" as="geometry">
                        <mxPoint x="940" y="-2955" as="sourcePoint"/>
                        <mxPoint x="990" y="-3005" as="targetPoint"/>
                    </mxGeometry>
                </mxCell>
                <mxCell id="18" value="" style="endArrow=classic;html=1;sketch=1;fontFamily=Georgia;fontSize=20;entryX=0;entryY=0.5;entryDx=0;entryDy=0;" edge="1" parent="1" target="16">
                    <mxGeometry width="50" height="50" relative="1" as="geometry">
                        <mxPoint x="1380" y="-3000.45" as="sourcePoint"/>
                        <mxPoint x="1450" y="-3000.45" as="targetPoint"/>
                    </mxGeometry>
                </mxCell>
                <mxCell id="19" value="&lt;pre class=&quot;tw-data-text tw-text-large tw-ta&quot; id=&quot;tw-target-text&quot; dir=&quot;ltr&quot; style=&quot;font-size: 15px; line-height: 36px; border: none; padding: 2px 0.14em 2px 0px; position: relative; margin-top: -2px; margin-bottom: -2px; resize: none; font-family: inherit; overflow: hidden; width: 270.019px; overflow-wrap: break-word; color: rgb(32, 33, 36);&quot;&gt;&lt;span class=&quot;Y2IQFc&quot; lang=&quot;en&quot; style=&quot;font-size: 15px;&quot;&gt;Click the menu that&lt;/span&gt;&lt;/pre&gt;&lt;pre class=&quot;tw-data-text tw-text-large tw-ta&quot; id=&quot;tw-target-text&quot; dir=&quot;ltr&quot; style=&quot;font-size: 15px; line-height: 36px; border: none; padding: 2px 0.14em 2px 0px; position: relative; margin-top: -2px; margin-bottom: -2px; resize: none; font-family: inherit; overflow: hidden; width: 270.019px; overflow-wrap: break-word; color: rgb(32, 33, 36);&quot;&gt;&lt;span class=&quot;Y2IQFc&quot; lang=&quot;en&quot; style=&quot;font-size: 15px;&quot;&gt; you want&lt;/span&gt;&lt;/pre&gt;" style="shape=parallelogram;perimeter=parallelogramPerimeter;whiteSpace=wrap;html=1;fixedSize=1;sketch=1;fontFamily=Georgia;fontSize=15;align=center;fontStyle=1" vertex="1" parent="1">
                    <mxGeometry x="1920" y="-3050" width="370" height="105" as="geometry"/>
                </mxCell>
                <mxCell id="20" value="" style="endArrow=classic;html=1;sketch=1;fontFamily=Georgia;fontSize=20;" edge="1" parent="1">
                    <mxGeometry width="50" height="50" relative="1" as="geometry">
                        <mxPoint x="1840" y="-3000.38" as="sourcePoint"/>
                        <mxPoint x="1930" y="-3000.38" as="targetPoint"/>
                    </mxGeometry>
                </mxCell>
                <mxCell id="21" value="" style="endArrow=classic;html=1;sketch=1;fontFamily=Georgia;fontSize=20;" edge="1" parent="1">
                    <mxGeometry width="50" height="50" relative="1" as="geometry">
                        <mxPoint x="2104.41" y="-2950" as="sourcePoint"/>
                        <mxPoint x="2104.41" y="-2840" as="targetPoint"/>
                        <Array as="points">
                            <mxPoint x="2104.41" y="-2900"/>
                            <mxPoint x="2104.66" y="-2855"/>
                        </Array>
                    </mxGeometry>
                </mxCell>
                <mxCell id="22" value="&lt;pre class=&quot;tw-data-text tw-text-large tw-ta&quot; id=&quot;tw-target-text&quot; dir=&quot;ltr&quot; style=&quot;line-height: 36px; border: none; padding: 2px 0.14em 2px 0px; position: relative; margin-top: -2px; margin-bottom: -2px; resize: none; font-family: inherit; overflow: hidden; width: 270.019px; overflow-wrap: break-word; color: rgb(32, 33, 36); font-size: 15px;&quot;&gt;&lt;span style=&quot;font-family: inherit; white-space: normal; font-size: 15px;&quot;&gt;The menu will&amp;nbsp;&lt;/span&gt;&lt;br style=&quot;font-size: 15px;&quot;&gt;&lt;/pre&gt;&lt;pre class=&quot;tw-data-text tw-text-large tw-ta&quot; id=&quot;tw-target-text&quot; dir=&quot;ltr&quot; style=&quot;line-height: 36px; border: none; padding: 2px 0.14em 2px 0px; position: relative; margin-top: -2px; margin-bottom: -2px; resize: none; font-family: inherit; overflow: hidden; width: 270.019px; overflow-wrap: break-word; color: rgb(32, 33, 36); font-size: 15px;&quot;&gt;&lt;span class=&quot;Y2IQFc&quot; lang=&quot;en&quot; style=&quot;font-size: 15px;&quot;&gt;&lt;font style=&quot;font-size: 15px;&quot;&gt;&lt;font style=&quot;font-size: 15px;&quot;&gt;be automatically adde&lt;/font&gt;&lt;font style=&quot;font-size: 15px;&quot;&gt;d to &lt;/font&gt;&lt;/font&gt;&lt;/span&gt;&lt;/pre&gt;&lt;pre class=&quot;tw-data-text tw-text-large tw-ta&quot; id=&quot;tw-target-text&quot; dir=&quot;ltr&quot; style=&quot;line-height: 36px; border: none; padding: 2px 0.14em 2px 0px; position: relative; margin-top: -2px; margin-bottom: -2px; resize: none; font-family: inherit; overflow: hidden; width: 270.019px; overflow-wrap: break-word; color: rgb(32, 33, 36); font-size: 15px;&quot;&gt;&lt;span class=&quot;Y2IQFc&quot; lang=&quot;en&quot; style=&quot;font-size: 15px;&quot;&gt;&lt;font style=&quot;font-size: 15px;&quot;&gt;&lt;font style=&quot;font-size: 15px;&quot;&gt;th&lt;/font&gt;e chart&lt;/font&gt;&lt;/span&gt;&lt;/pre&gt;" style="rounded=0;whiteSpace=wrap;html=1;sketch=1;fontFamily=Georgia;fontSize=15;align=center;fontStyle=1" vertex="1" parent="1">
                    <mxGeometry x="1910" y="-2830" width="355" height="110" as="geometry"/>
                </mxCell>
                <mxCell id="24" value="" style="endArrow=classic;html=1;sketch=1;fontFamily=Georgia;fontSize=20;" edge="1" parent="1">
                    <mxGeometry width="50" height="50" relative="1" as="geometry">
                        <mxPoint x="1920" y="-2780" as="sourcePoint"/>
                        <mxPoint x="1830" y="-2780" as="targetPoint"/>
                    </mxGeometry>
                </mxCell>
                <mxCell id="25" value="check the chart, then make sure all orders are correct" style="rounded=0;whiteSpace=wrap;html=1;sketch=1;fontFamily=Georgia;fontSize=15;fontStyle=1" vertex="1" parent="1">
                    <mxGeometry x="1480" y="-2835" width="350" height="105" as="geometry"/>
                </mxCell>
                <mxCell id="26" value="" style="endArrow=classic;html=1;sketch=1;fontFamily=Georgia;fontSize=20;" edge="1" parent="1">
                    <mxGeometry width="50" height="50" relative="1" as="geometry">
                        <mxPoint x="1480" y="-2770" as="sourcePoint"/>
                        <mxPoint x="1410" y="-2770" as="targetPoint"/>
                        <Array as="points"/>
                    </mxGeometry>
                </mxCell>
                <mxCell id="30" value="&lt;pre class=&quot;tw-data-text tw-text-large tw-ta&quot; id=&quot;tw-target-text&quot; dir=&quot;ltr&quot; style=&quot;font-size: 15px ; line-height: 36px ; border: none ; padding: 2px 0.14em 2px 0px ; position: relative ; margin-top: -2px ; margin-bottom: -2px ; resize: none ; font-family: inherit ; overflow: hidden ; width: 270.019px ; overflow-wrap: break-word ; color: rgb(32 , 33 , 36)&quot;&gt;&lt;span class=&quot;Y2IQFc&quot; lang=&quot;en&quot; style=&quot;font-size: 15px&quot;&gt;   if you want to add &lt;/span&gt;&lt;/pre&gt;&lt;pre class=&quot;tw-data-text tw-text-large tw-ta&quot; id=&quot;tw-target-text&quot; dir=&quot;ltr&quot; style=&quot;font-size: 15px ; line-height: 36px ; border: none ; padding: 2px 0.14em 2px 0px ; position: relative ; margin-top: -2px ; margin-bottom: -2px ; resize: none ; font-family: inherit ; overflow: hidden ; width: 270.019px ; overflow-wrap: break-word ; color: rgb(32 , 33 , 36)&quot;&gt;&lt;span class=&quot;Y2IQFc&quot; lang=&quot;en&quot; style=&quot;font-size: 15px&quot;&gt;another order&lt;/span&gt;&lt;/pre&gt;" style="rhombus;whiteSpace=wrap;html=1;sketch=1;fontFamily=Georgia;fontSize=15;align=center;fontStyle=1" vertex="1" parent="1">
                    <mxGeometry x="1225" y="-2861.25" width="190" height="191.25" as="geometry"/>
                </mxCell>
                <mxCell id="31" value="" style="endArrow=classic;html=1;sketch=1;fontFamily=Georgia;fontSize=15;entryX=0.5;entryY=1;entryDx=0;entryDy=0;" edge="1" parent="1" target="12">
                    <mxGeometry width="50" height="50" relative="1" as="geometry">
                        <mxPoint x="1225" y="-2775.25" as="sourcePoint"/>
                        <mxPoint x="1135" y="-2775.62" as="targetPoint"/>
                        <Array as="points">
                            <mxPoint x="1235" y="-2775.62"/>
                            <mxPoint x="725" y="-2776"/>
                        </Array>
                    </mxGeometry>
                </mxCell>
                <mxCell id="32" value="true" style="text;html=1;strokeColor=none;fillColor=none;align=center;verticalAlign=middle;whiteSpace=wrap;rounded=0;sketch=1;fontFamily=Georgia;fontSize=15;" vertex="1" parent="1">
                    <mxGeometry x="1215" y="-2850" width="60" height="30" as="geometry"/>
                </mxCell>
                <mxCell id="36" value="" style="endArrow=classic;html=1;sketch=1;fontFamily=Georgia;fontSize=15;" edge="1" parent="1">
                    <mxGeometry width="50" height="50" relative="1" as="geometry">
                        <mxPoint x="1319.88" y="-2670" as="sourcePoint"/>
                        <mxPoint x="1319.41" y="-2581.25" as="targetPoint"/>
                    </mxGeometry>
                </mxCell>
                <mxCell id="37" value="&lt;pre class=&quot;tw-data-text tw-text-large tw-ta&quot; id=&quot;tw-target-text&quot; dir=&quot;ltr&quot; style=&quot;line-height: 36px ; border: none ; padding: 2px 0.14em 2px 0px ; position: relative ; margin-top: -2px ; margin-bottom: -2px ; resize: none ; font-family: inherit ; overflow: hidden ; width: 270.019px ; overflow-wrap: break-word ; color: rgb(32 , 33 , 36)&quot;&gt;choose the type of the payment&lt;/pre&gt;" style="rounded=0;whiteSpace=wrap;html=1;sketch=1;fontFamily=Georgia;fontSize=15;align=center;fontStyle=1" vertex="1" parent="1">
                    <mxGeometry x="1170" y="-2580" width="300" height="100" as="geometry"/>
                </mxCell>
                <mxCell id="39" value="" style="endArrow=classic;html=1;sketch=1;fontFamily=Georgia;fontSize=15;" edge="1" parent="1">
                    <mxGeometry width="50" height="50" relative="1" as="geometry">
                        <mxPoint x="1319.8200000000002" y="-2480" as="sourcePoint"/>
                        <mxPoint x="1319.41" y="-2380" as="targetPoint"/>
                    </mxGeometry>
                </mxCell>
                <mxCell id="42" value="if payment= e-wallet" style="rhombus;whiteSpace=wrap;html=1;fontSize=15;fontStyle=1" vertex="1" parent="1">
                    <mxGeometry x="1240" y="-2380" width="160" height="160" as="geometry"/>
                </mxCell>
                <mxCell id="43" value="" style="endArrow=classic;html=1;" edge="1" parent="1">
                    <mxGeometry width="50" height="50" relative="1" as="geometry">
                        <mxPoint x="1400" y="-2300.31" as="sourcePoint"/>
                        <mxPoint x="1520" y="-2299.81" as="targetPoint"/>
                    </mxGeometry>
                </mxCell>
                <mxCell id="44" value="&lt;p class=&quot;MsoNormal&quot; style=&quot;margin-bottom: 0cm ; font-size: 16px&quot;&gt;&lt;span lang=&quot;EN-US&quot;&gt;&lt;font style=&quot;font-size: 16px&quot;&gt;Pay and Checkout&lt;/font&gt;&lt;/span&gt;&lt;/p&gt;&lt;font style=&quot;font-size: 16px&quot;&gt;Then wait the restaurant&lt;br&gt;processed the food&lt;/font&gt;&lt;span&gt;&lt;br&gt;&lt;/span&gt;" style="whiteSpace=wrap;html=1;aspect=fixed;fontStyle=1" vertex="1" parent="1">
                    <mxGeometry x="1520" y="-2390" width="180" height="180" as="geometry"/>
                </mxCell>
                <mxCell id="45" value="true" style="text;html=1;strokeColor=none;fillColor=none;align=center;verticalAlign=middle;whiteSpace=wrap;rounded=0;" vertex="1" parent="1">
                    <mxGeometry x="1355" y="-2350" width="60" height="30" as="geometry"/>
                </mxCell>
                <mxCell id="46" value="" style="endArrow=classic;html=1;fontSize=16;" edge="1" parent="1">
                    <mxGeometry width="50" height="50" relative="1" as="geometry">
                        <mxPoint x="1700" y="-2300.42" as="sourcePoint"/>
                        <mxPoint x="1820" y="-2300.71" as="targetPoint"/>
                    </mxGeometry>
                </mxCell>
                <mxCell id="48" style="edgeStyle=none;html=1;fontSize=12;" edge="1" parent="1" source="47">
                    <mxGeometry relative="1" as="geometry">
                        <mxPoint x="2170" y="-2300" as="targetPoint"/>
                    </mxGeometry>
                </mxCell>
                <mxCell id="47" value="&lt;p style=&quot;line-height: 1 ; font-size: 15px&quot;&gt;&lt;/p&gt;&lt;pre class=&quot;tw-data-text tw-text-large tw-ta&quot; id=&quot;tw-target-text&quot; dir=&quot;ltr&quot; style=&quot;line-height: 36px ; border: none ; padding: 2px 0.14em 2px 0px ; position: relative ; margin-top: -2px ; margin-bottom: -2px ; resize: none ; font-family: inherit ; overflow: hidden ; width: 270.019px ; overflow-wrap: break-word ; color: rgb(32 , 33 , 36) ; font-size: 15px&quot;&gt;&lt;span class=&quot;Y2IQFc&quot; lang=&quot;en&quot; style=&quot;line-height: 0.9 ; font-size: 15px&quot;&gt;&lt;font style=&quot;font-size: 15px&quot;&gt;Then wait for &lt;/font&gt;&lt;/span&gt;&lt;/pre&gt;&lt;pre class=&quot;tw-data-text tw-text-large tw-ta&quot; id=&quot;tw-target-text&quot; dir=&quot;ltr&quot; style=&quot;line-height: 36px ; border: none ; padding: 2px 0.14em 2px 0px ; position: relative ; margin-top: -2px ; margin-bottom: -2px ; resize: none ; font-family: inherit ; overflow: hidden ; text-align: left ; width: 270.019px ; overflow-wrap: break-word ; color: rgb(32 , 33 , 36) ; font-size: 15px&quot;&gt;&lt;span class=&quot;Y2IQFc&quot; lang=&quot;en&quot; style=&quot;font-size: 15px&quot;&gt;&lt;font style=&quot;font-size: 15px&quot;&gt;          the driver to bring the food&lt;/font&gt;&lt;/span&gt;&lt;/pre&gt;&lt;p style=&quot;font-size: 15px&quot;&gt;&lt;/p&gt;" style="rounded=0;whiteSpace=wrap;html=1;fontSize=15;spacing=0;fontStyle=1" vertex="1" parent="1">
                    <mxGeometry x="1820" y="-2360" width="260" height="120" as="geometry"/>
                </mxCell>
                <mxCell id="49" value="&lt;pre class=&quot;tw-data-text tw-text-large tw-ta&quot; id=&quot;tw-target-text&quot; dir=&quot;ltr&quot; style=&quot;line-height: 36px; border: none; padding: 2px 0.14em 2px 0px; position: relative; margin-top: -2px; margin-bottom: -2px; resize: none; font-family: inherit; overflow: hidden; width: 270.019px; overflow-wrap: break-word; color: rgb(32, 33, 36); font-size: 15px;&quot;&gt;&lt;span class=&quot;Y2IQFc&quot; lang=&quot;en&quot; style=&quot;line-height: 0; font-size: 15px;&quot;&gt;&lt;font style=&quot;font-size: 15px;&quot;&gt;And the &lt;/font&gt;&lt;/span&gt;food is ready to eat&lt;/pre&gt;" style="ellipse;whiteSpace=wrap;html=1;fontSize=15;align=center;fontStyle=1" vertex="1" parent="1">
                    <mxGeometry x="2170" y="-2365" width="250" height="125" as="geometry"/>
                </mxCell>
                <mxCell id="50" value="" style="endArrow=classic;html=1;fontSize=15;exitX=0.5;exitY=1;exitDx=0;exitDy=0;" edge="1" parent="1" source="42" target="51">
                    <mxGeometry width="50" height="50" relative="1" as="geometry">
                        <mxPoint x="1320" y="-2210" as="sourcePoint"/>
                        <mxPoint x="1320" y="-2150" as="targetPoint"/>
                    </mxGeometry>
                </mxCell>
                <mxCell id="51" value="waiting for the driver order the food" style="rounded=0;whiteSpace=wrap;html=1;fontSize=15;fontStyle=1" vertex="1" parent="1">
                    <mxGeometry x="1185" y="-2160" width="270" height="100" as="geometry"/>
                </mxCell>
                <mxCell id="53" value="" style="endArrow=classic;html=1;fontSize=15;" edge="1" parent="1">
                    <mxGeometry width="50" height="50" relative="1" as="geometry">
                        <mxPoint x="1455" y="-2110" as="sourcePoint"/>
                        <mxPoint x="1540" y="-2110" as="targetPoint"/>
                    </mxGeometry>
                </mxCell>
                <mxCell id="54" value="Then pay the food to the driver" style="rounded=0;whiteSpace=wrap;html=1;fontSize=15;fontStyle=1" vertex="1" parent="1">
                    <mxGeometry x="1540" y="-2160" width="270" height="100" as="geometry"/>
                </mxCell>
                <mxCell id="55" value="" style="endArrow=classic;html=1;fontSize=15;exitX=1;exitY=0.5;exitDx=0;exitDy=0;entryX=0.5;entryY=1;entryDx=0;entryDy=0;" edge="1" parent="1" source="54" target="49">
                    <mxGeometry width="50" height="50" relative="1" as="geometry">
                        <mxPoint x="2050" y="-2100" as="sourcePoint"/>
                        <mxPoint x="2100" y="-2150" as="targetPoint"/>
                        <Array as="points">
                            <mxPoint x="2295" y="-2110"/>
                        </Array>
                    </mxGeometry>
                </mxCell>
                <mxCell id="56" value="false" style="text;html=1;strokeColor=none;fillColor=none;align=center;verticalAlign=middle;whiteSpace=wrap;rounded=0;fontSize=15;" vertex="1" parent="1">
                    <mxGeometry x="1340" y="-2200" width="60" height="30" as="geometry"/>
                </mxCell>
                <mxCell id="58" value="false" style="text;html=1;strokeColor=none;fillColor=none;align=center;verticalAlign=middle;whiteSpace=wrap;rounded=0;fontSize=15;" vertex="1" parent="1">
                    <mxGeometry x="1380" y="-2710" width="60" height="30" as="geometry"/>
                </mxCell>
            </root>
        </mxGraphModel>
    </diagram>
</mxfile>